<?xml version="1.0" standalone="no"?>
<!DOCTYPE svg PUBLIC "-//W3C//DTD SVG 20010904//EN"
 "http://www.w3.org/TR/2001/REC-SVG-20010904/DTD/svg10.dtd">
<svg version="1.0" xmlns="http://www.w3.org/2000/svg"
 width="512.000000pt" height="512.000000pt" viewBox="0 0 512.000000 512.000000"
 preserveAspectRatio="xMidYMid meet">
<metadata>
Created by potrace 1.14, written by Peter Selinger 2001-2017
</metadata>
<g transform="translate(0.000000,512.000000) scale(0.100000,-0.100000)"
fill="#000000" stroke="none">
<path d="M678 4785 c-116 -32 -250 -140 -303 -244 -57 -113 -54 -3 -54 -1981
0 -1981 -3 -1868 55 -1982 34 -67 135 -168 200 -201 119 -60 -4 -57 2004 -54
l1835 2 65 24 c151 55 264 181 305 338 13 49 15 297 15 1877 0 1734 -1 1824
-19 1881 -47 156 -140 259 -293 324 l-63 26 -1850 1 c-1480 1 -1859 -1 -1897
-11z m1571 -605 c115 -33 145 -174 58 -270 -17 -20 -276 -312 -442 -499 -16
-19 -34 -39 -40 -45 -5 -6 -46 -51 -90 -101 -144 -161 -167 -184 -202 -196
-45 -14 -104 -7 -139 19 -56 41 -407 400 -419 429 -29 69 -6 149 56 195 30 22
109 31 147 17 15 -6 86 -69 159 -141 141 -140 140 -140 179 -88 14 17 25 30
119 135 39 43 86 97 106 119 20 23 78 88 129 146 201 227 236 263 265 276 36
16 69 17 114 4z m1815 -604 c18 -8 46 -31 62 -51 23 -31 28 -48 29 -95 0 -50
-4 -63 -31 -97 -17 -21 -46 -43 -65 -50 -47 -17 -1501 -18 -1550 -2 -62 21
-96 62 -105 129 -10 71 31 143 96 169 16 6 304 10 778 10 622 1 758 -1 786
-13z m22 -882 c53 -39 69 -71 69 -133 -1 -48 -6 -65 -29 -96 -54 -70 61 -66
-1579 -63 l-1484 3 -36 28 c-41 31 -57 56 -64 100 -11 71 27 144 91 172 26 11
276 13 1518 12 1484 -2 1487 -2 1514 -23z m-27 -707 c48 -17 90 -73 97 -129 7
-59 -13 -107 -62 -144 l-37 -29 -1490 -2 c-1401 -3 -1491 -2 -1519 15 -96 56
-116 182 -39 256 15 15 41 31 57 36 48 14 2952 11 2993 -3z m27 -733 c53 -39
69 -71 69 -133 0 -48 -5 -64 -29 -96 -54 -70 61 -66 -1579 -63 l-1484 3 -36
28 c-41 31 -57 56 -64 100 -11 71 27 144 91 172 26 11 276 13 1518 12 1484 -2
1487 -2 1514 -23z"/>
</g>
</svg>
